<svg xmlns="http://www.w3.org/2000/svg" viewBox="0 0 40 40" role="img" aria-label="Benim Öğretmenim">
  <defs>
    <linearGradient id="bmo-mark" x1="4" y1="3" x2="38" y2="38" gradientUnits="userSpaceOnUse">
      <stop stop-color="#9dd9cf"/>
      <stop offset="0.48" stop-color="#2a9d8f"/>
      <stop offset="1" stop-color="#0d2e2a"/>
    </linearGradient>
    <linearGradient id="bmo-mark_fold" x1="14" y1="14" x2="19" y2="20" gradientUnits="userSpaceOnUse">
      <stop stop-color="#fef6f3"/>
      <stop offset="0.45" stop-color="#f3a894"/>
      <stop offset="1" stop-color="#e76f51"/>
    </linearGradient>
  </defs>
  <rect x="2" y="2" width="36" height="36" rx="12" fill="url(#bmo-mark)" stroke="#0d2e2a" stroke-opacity="0.14" stroke-width="0.55"/>
  <ellipse cx="12.5" cy="9.5" rx="10" ry="6" fill="#ffffff" fill-opacity="0.11"/>
  <path d="M8.2 28.8l11.3-6.7 2.9 1.65-11.3 6.65z" fill="#0f172a" fill-opacity="0.14"/>
  <path d="M7.6 27.9l11.2-6.65 2.85 1.6-11.2 6.6z" fill="#ffffff" fill-opacity="0.38"/>
  <path d="M7 24.3l11.15-6.6 2.9 1.62-11.15 6.55z" fill="#ffffff" fill-opacity="0.66"/>
  <path d="M6.4 20.7l11.1-6.55 2.95 1.65-11.1 6.5z" fill="#ffffff" fill-opacity="0.96"/>
  <path d="M15.1 14.4l3.15 1.78-.7 2.45-3.6.45z" fill="url(#bmo-mark_fold)"/>
  <circle cx="30.6" cy="9.4" r="2.15" fill="#f3a894" fill-opacity="0.95"/>
  <circle cx="30.35" cy="9.15" r="0.95" fill="#ffffff" fill-opacity="0.45"/>
</svg>
